<svg viewBox="8.72 7.3 39.44 29.4" xmlns="http://www.w3.org/2000/svg" fill="white" aria-hidden="true">
  <path d="M33.5809 8C33.2199 8.64088 32.8958 9.30387 32.6011 9.98158C29.8019 9.56169 26.9511 9.56169 24.1444 9.98158C23.8571 9.30387 23.5256 8.64088 23.1647 8C20.5348 8.44936 17.9713 9.23757 15.5404 10.3499C10.7227 17.488 9.41883 24.442 10.0671 31.3002C12.8884 33.3849 16.0487 34.9761 19.4151 35.9926C20.1739 34.9761 20.8442 33.8932 21.4188 32.7661C20.3286 32.361 19.2752 31.8527 18.266 31.2634C18.5312 31.0718 18.789 30.8729 19.0395 30.6814C24.9547 33.4659 31.8056 33.4659 37.7282 30.6814C37.9787 30.8877 38.2365 31.0866 38.5017 31.2634C37.4925 31.86 36.4391 32.361 35.3415 32.7735C35.9161 33.9006 36.5864 34.9834 37.3452 36C40.7116 34.9834 43.8719 33.3996 46.6932 31.3149C47.4593 23.3591 45.382 16.4641 41.2052 10.3573C38.7816 9.24494 36.2181 8.45672 33.5883 8.01473L33.5809 8ZM22.2439 27.0792C20.4244 27.0792 18.9142 25.4291 18.9142 23.3886C18.9142 21.3481 20.3654 19.6906 22.2365 19.6906C24.1076 19.6906 25.5956 21.3554 25.5662 23.3886C25.5367 25.4217 24.1002 27.0792 22.2439 27.0792ZM34.5164 27.0792C32.6895 27.0792 31.1942 25.4291 31.1942 23.3886C31.1942 21.3481 32.6454 19.6906 34.5164 19.6906C36.3875 19.6906 37.8682 21.3554 37.8387 23.3886C37.8093 25.4217 36.3728 27.0792 34.5164 27.0792Z"/>
</svg>